# xmcd
#
# Track frame offsets: 
#        150
#        22010
#        36223
#        68055
#        85068
#        96623
#        113060
#        122605
#        142543
#        161868
#
# Disc length: 2501 seconds
#
# Revision: 9
# Processed by: cddbd v1.5.2PL0 Copyright (c) Steve Scherf et al.
# Submitted via: ExactAudioCopy v0.95a5
#
DISCID=7f09c30a
DTITLE=Pungent Stench - For God Your Soul... For Me Your Flesh (Reissu
DTITLE=e)
DYEAR=1990
DGENRE=Death Metal
TTITLE0=Intro - Extreme Deformity
TTITLE1=Hypnos
TTITLE2=For God Your Soul ... For Me Your Flesh
TTITLE3=Just Let Me Rot
TTITLE4=Pungent Stench
TTITLE5=Bonesawer
TTITLE6=Embalmed in Sulphuric Acid
TTITLE7=Blood, Pus and Gastric Juice
TTITLE8=Suspended Animation
TTITLE9=A Small Lunch
EXTD=YEAR: 1990
EXTT0=
EXTT1=
EXTT2=
EXTT3=
EXTT4=
EXTT5=
EXTT6=
EXTT7=
EXTT8=
EXTT9=
PLAYORDER=
